<?xml version="1.0" standalone="no"?>
<!DOCTYPE svg PUBLIC "-//W3C//DTD SVG 20010904//EN"
 "http://www.w3.org/TR/2001/REC-SVG-20010904/DTD/svg10.dtd">
<svg version="1.0" xmlns="http://www.w3.org/2000/svg"
 width="700.000000pt" height="700.000000pt" viewBox="0 0 700.000000 700.000000"
 preserveAspectRatio="xMidYMid meet">
<metadata>
Created by potrace 1.14, written by Peter Selinger 2001-2017
</metadata>
<g transform="translate(0.000000,700.000000) scale(0.100000,-0.100000)"
fill="#000000" stroke="none">
<path d="M3379 6706 c-2 -2 -29 -7 -59 -10 -164 -20 -354 -100 -491 -208 -149
-116 -257 -271 -313 -446 -56 -179 -55 -120 -55 -1751 l-1 -1504 -48 -52
c-108 -117 -169 -207 -238 -350 -110 -228 -150 -410 -147 -675 2 -284 89 -556
257 -805 73 -109 261 -299 366 -371 519 -355 1170 -359 1685 -11 110 75 301
263 372 367 140 206 235 454 259 677 35 334 -34 656 -201 933 -55 93 -148 212
-207 269 -16 16 -18 115 -20 1546 -3 1387 -5 1537 -20 1605 -44 198 -124 351
-250 481 -193 198 -459 305 -764 307 -67 1 -123 -1 -125 -2z m372 -342 c170
-60 312 -184 388 -337 76 -155 71 -38 71 -1768 0 -1352 2 -1554 15 -1585 8
-20 51 -74 94 -120 212 -224 319 -479 326 -775 3 -145 -13 -262 -51 -376 -131
-395 -438 -677 -844 -773 -75 -18 -125 -23 -240 -23 -208 -1 -343 30 -519 116
-122 61 -209 124 -308 224 -221 225 -336 514 -328 827 2 66 6 132 9 146 3 13
8 42 12 64 9 63 63 213 105 294 52 99 114 184 201 277 88 94 93 101 101 143 4
19 7 728 7 1575 1 1623 0 1574 44 1696 57 155 213 316 366 377 106 43 161 51
315 49 139 -1 156 -3 236 -31z"/>
<path d="M3435 4996 c-37 -16 -82 -68 -92 -104 -4 -15 -7 -600 -7 -1299 -1
-1086 -3 -1273 -15 -1273 -8 0 -48 -16 -89 -36 -109 -53 -216 -161 -270 -275
-49 -102 -66 -193 -59 -302 8 -131 47 -230 130 -335 111 -141 287 -225 467
-225 253 0 481 163 567 403 35 97 41 251 14 350 -48 181 -185 335 -359 406
l-57 23 -1 1268 c0 697 -4 1282 -8 1299 -8 36 -58 88 -99 103 -38 15 -85 13
-122 -3z"/>
<path d="M5685 6499 c-384 -62 -654 -436 -589 -814 29 -166 99 -298 212 -403
191 -176 443 -237 691 -166 249 71 450 295 499 557 12 65 5 232 -12 299 -64
248 -262 447 -511 513 -69 19 -217 26 -290 14z m211 -333 c77 -17 186 -99 232
-177 29 -49 53 -144 51 -204 -3 -60 -25 -144 -45 -166 -8 -8 -14 -20 -14 -26
0 -20 -102 -112 -152 -136 -85 -41 -152 -51 -240 -35 -185 34 -322 208 -312
397 9 165 130 310 291 351 36 8 142 7 189 -4z"/>
</g>
</svg>
